<?xml version="1.0" encoding="UTF-8" standalone="no"?>
<!-- Created with Inkscape (http://www.inkscape.org/) -->
<svg
   xmlns:svg="http://www.w3.org/2000/svg"
   xmlns="http://www.w3.org/2000/svg"
   xmlns:xlink="http://www.w3.org/1999/xlink"
   version="1.0"
   width="800"
   height="600"
   id="game_window">
  <defs
     id="defs4" />
  <g
     id="game_fixed">
    <image
       xlink:href="table_background.png"
       x="0.98279238"
       y="-0.73710114"
       width="800"
       height="600"
       id="game_background" />
    <image
       xlink:href="dealer.png"
       x="162.31781"
       y="213.36116"
       width="24"
       height="24"
       id="dealer0" />
    <image
       xlink:href="dealer.png"
       x="135.35153"
       y="307.74316"
       width="24"
       height="24"
       id="dealer9" />
    <image
       xlink:href="dealer.png"
       x="211.435"
       y="398.27286"
       width="24"
       height="24"
       id="dealer8" />
    <image
       xlink:href="dealer.png"
       x="348.19263"
       y="398.27286"
       width="24"
       height="24"
       id="dealer7" />
    <image
       xlink:href="dealer.png"
       x="481.09793"
       y="399.23596"
       width="24"
       height="24"
       id="dealer6" />
    <image
       xlink:href="dealer.png"
       x="283.66611"
       y="178.20866"
       width="24"
       height="24"
       id="dealer1" />
    <image
       xlink:href="dealer.png"
       x="427.16534"
       y="178.20866"
       width="24"
       height="24"
       id="dealer2" />
    <image
       xlink:href="dealer.png"
       x="560.07062"
       y="179.17177"
       width="24"
       height="24"
       id="dealer3" />
    <image
       xlink:href="dealer.png"
       x="634.22791"
       y="278.85074"
       width="24"
       height="24"
       id="dealer4" />
    <image
       xlink:href="dealer.png"
       x="600.52008"
       y="371.30655"
       width="24"
       height="24"
       id="dealer5" />
    <image
       xlink:href="bet.png"
       x="144.08949"
       y="243.70039"
       width="34"
       height="34"
       id="bet_seat0" />
    <image
       xlink:href="bet.png"
       x="147.20235"
       y="333.97275"
       width="34"
       height="34"
       id="bet_seat9" />
    <image
       xlink:href="bet.png"
       x="246.81323"
       y="392.33853"
       width="34"
       height="34"
       id="bet_seat8" />
    <image
       xlink:href="bet.png"
       x="379.88715"
       y="394.67316"
       width="34"
       height="34"
       id="bet_seat7" />
    <image
       xlink:href="bet.png"
       x="509.84827"
       y="393.11673"
       width="34"
       height="34"
       id="bet_seat6" />
    <image
       xlink:href="bet.png"
       x="607.90271"
       y="335.52917"
       width="34"
       height="34"
       id="bet_seat5" />
    <image
       xlink:href="bet.png"
       x="611.01556"
       y="248.36964"
       width="34"
       height="34"
       id="bet_seat4" />
    <image
       xlink:href="bet.png"
       x="524.63428"
       y="174.43968"
       width="34"
       height="34"
       id="bet_seat3" />
    <image
       xlink:href="bet.png"
       x="387.66928"
       y="175.99611"
       width="34"
       height="34"
       id="bet_seat2" />
    <image
       xlink:href="bet.png"
       x="246.03502"
       y="176.77432"
       width="34"
       height="34"
       id="bet_seat1" />
    <image
       xlink:href="get_seat.png"
       x="25.861681"
       y="128.44835"
       width="102"
       height="101"
       id="sit_seat0" />
    <image
       xlink:href="get_seat.png"
       x="26.042801"
       y="398.52722"
       width="102"
       height="101"
       id="sit_seat9" />
    <image
       xlink:href="get_seat.png"
       x="211.92136"
       y="490.75201"
       width="102"
       height="101"
       id="sit_seat8" />
    <image
       xlink:href="get_seat.png"
       x="347.79184"
       y="491.53024"
       width="102"
       height="101"
       id="sit_seat7" />
    <image
       xlink:href="get_seat.png"
       x="480.62119"
       y="491.71509"
       width="102"
       height="101"
       id="sit_seat6" />
    <image
       xlink:href="get_seat.png"
       x="679.01605"
       y="398.29614"
       width="102"
       height="101"
       id="sit_seat5" />
    <image
       xlink:href="get_seat.png"
       x="679.01605"
       y="128.63322"
       width="102"
       height="101"
       id="sit_seat4" />
    <image
       xlink:href="get_seat.png"
       x="487.36273"
       y="7.2849135"
       width="102"
       height="101"
       id="sit_seat3" />
    <image
       xlink:href="get_seat.png"
       x="352.53128"
       y="6.3218298"
       width="102"
       height="101"
       id="sit_seat2" />
    <image
       xlink:href="get_seat.png"
       x="213.8475"
       y="6.3218312"
       width="102"
       height="101"
       id="sit_seat1" />
    <image
       xlink:href="card_back.png"
       x="290.4494"
       y="258.04669"
       width="37"
       height="52"
       id="board1" />
    <image
       xlink:href="card_back.png"
       x="330.13812"
       y="258.82489"
       width="37"
       height="52"
       id="board2" />
    <image
       xlink:href="card_back.png"
       x="368.27042"
       y="258.04669"
       width="37"
       height="52"
       id="board3" />
    <image
       xlink:href="card_back.png"
       x="407.95914"
       y="258.82492"
       width="37"
       height="52"
       id="board4" />
    <image
       xlink:href="card_back.png"
       x="446.86966"
       y="258.82489"
       width="37"
       height="52"
       id="board5" />
    <image
       xlink:href="pot.png"
       x="225.02335"
       y="321.52139"
       width="34"
       height="34"
       id="pot0" />
    <image
       xlink:href="pot.png"
       x="263.93384"
       y="321.52139"
       width="34"
       height="34"
       id="pot1" />
    <image
       xlink:href="pot.png"
       x="302.06613"
       y="321.52139"
       width="34"
       height="34"
       id="pot2" />
    <image
       xlink:href="pot.png"
       x="337.86383"
       y="321.52139"
       width="34"
       height="34"
       id="pot3" />
    <image
       xlink:href="pot.png"
       x="374.43967"
       y="321.52139"
       width="34"
       height="34"
       id="pot4" />
    <image
       xlink:href="pot.png"
       x="411.01556"
       y="321.52139"
       width="34"
       height="34"
       id="pot5" />
    <image
       xlink:href="pot.png"
       x="446.81323"
       y="321.52139"
       width="34"
       height="34"
       id="pot6" />
    <image
       xlink:href="pot.png"
       x="484.94553"
       y="321.52139"
       width="34"
       height="34"
       id="pot7" />
    <image
       xlink:href="pot.png"
       x="521.52142"
       y="321.52139"
       width="34"
       height="34"
       id="pot8" />
    <image
       xlink:href="name.png"
       x="36.861679"
       y="164.83463"
       width="80"
       height="25"
       id="name_seat0" />
    <image
       xlink:href="money.png"
       x="36.861679"
       y="195.06419"
       width="80"
       height="25"
       id="money_seat0" />
    <image
       xlink:href="name.png"
       x="34.542801"
       y="438.53891"
       width="85"
       height="25"
       id="name_seat9" />
    <image
       xlink:href="money.png"
       x="37.042801"
       y="467.54669"
       width="80"
       height="25"
       id="money_seat9" />
    <image
       xlink:href="winner.png"
       x="298.94455"
       y="228.20183"
       width="180"
       height="25"
       id="winner0" />
    <image
       xlink:href="winner.png"
       x="298.94455"
       y="314.45282"
       width="180"
       height="25"
       id="winner1" />
    <image
       xlink:href="exit.png"
       x="25.230156"
       y="18.746033"
       width="67"
       height="26"
       id="quit" />
    <image
       xlink:href="rebuy.png"
       x="98.246025"
       y="19.539679"
       width="67"
       height="26"
       id="rebuy" />
    <image
       xlink:href="tables_dock.png"
       x="28.119055"
       y="47.809521"
       width="139"
       height="52"
       id="switch" />
    <image
       xlink:href="name.png"
       x="222.92136"
       y="531.86914"
       width="80"
       height="25"
       id="name_seat8" />
    <image
       xlink:href="money.png"
       x="222.92136"
       y="558.87689"
       width="80"
       height="25"
       id="money_seat8" />
    <image
       xlink:href="name.png"
       x="358.79184"
       y="530.25006"
       width="80"
       height="25"
       id="name_seat7" />
    <image
       xlink:href="money.png"
       x="358.79184"
       y="559.25787"
       width="80"
       height="25"
       id="money_seat7" />
    <image
       xlink:href="name.png"
       x="491.62119"
       y="529.45642"
       width="80"
       height="25"
       id="name_seat6" />
    <image
       xlink:href="money.png"
       x="491.62119"
       y="558.46417"
       width="80"
       height="25"
       id="money_seat6" />
    <image
       xlink:href="name.png"
       x="690.01605"
       y="433.80563"
       width="80"
       height="25"
       id="name_seat5" />
    <image
       xlink:href="money.png"
       x="690.01605"
       y="462.81342"
       width="80"
       height="25"
       id="money_seat5" />
    <image
       xlink:href="name.png"
       x="690.01605"
       y="166.34532"
       width="80"
       height="25"
       id="name_seat4" />
    <image
       xlink:href="money.png"
       x="690.01605"
       y="195.3531"
       width="80"
       height="25"
       id="money_seat4" />
    <image
       xlink:href="name.png"
       x="498.36273"
       y="42.504051"
       width="80"
       height="25"
       id="name_seat3" />
    <image
       xlink:href="money.png"
       x="498.36273"
       y="71.511833"
       width="80"
       height="25"
       id="money_seat3" />
    <image
       xlink:href="name.png"
       x="363.53128"
       y="42.123093"
       width="80"
       height="25"
       id="name_seat2" />
    <image
       xlink:href="money.png"
       x="363.53128"
       y="71.130875"
       width="80"
       height="25"
       id="money_seat2" />
    <image
       xlink:href="name.png"
       x="224.8475"
       y="43.329437"
       width="80"
       height="25"
       id="name_seat1" />
    <image
       xlink:href="money.png"
       x="224.8475"
       y="74.337219"
       width="80"
       height="25"
       id="money_seat1" />
    <image
       xlink:href="check.png"
       x="638.31744"
       y="508.33334"
       width="44"
       height="30"
       id="check" />
    <image
       xlink:href="call.png"
       x="686.73016"
       y="509.12698"
       width="44"
       height="30"
       id="call" />
    <image
       xlink:href="fold.png"
       x="735.93652"
       y="507.53967"
       width="44"
       height="30"
       id="fold" />
    <image
       xlink:href="raise.png"
       x="639.90472"
       y="543.25397"
       width="44"
       height="30"
       id="raise" />
    <image
       xlink:href="raise_slider_dock.png"
       x="686.33331"
       y="541.98413"
       width="94"
       height="50"
       id="raise_range" />
    <image
       xlink:href="status.png"
       x="628.19409"
       y="11.148649"
       width="150"
       height="75"
       id="table_status" />
    <image
       xlink:href="card_back.png"
       x="24.251839"
       y="338.12778"
       width="37"
       height="52"
       id="card_seat9" />
    <image
       xlink:href="card_back.png"
       x="24.251842"
       y="231.98526"
       width="37"
       height="52"
       id="card_seat0" />
    <image
       xlink:href="card_back.png"
       x="211.47543"
       y="432.47665"
       width="37"
       height="52"
       id="card_seat8" />
    <image
       xlink:href="card_back.png"
       x="345.62778"
       y="431.00244"
       width="37"
       height="52"
       id="card_seat7" />
    <image
       xlink:href="card_back.png"
       x="479.78009"
       y="432.47665"
       width="37"
       height="52"
       id="card_seat6" />
    <image
       xlink:href="card_back.png"
       x="678.7973"
       y="339.60199"
       width="37"
       height="52"
       id="card_seat5" />
    <image
       xlink:href="card_back.png"
       x="681.74573"
       y="231.98524"
       width="37"
       height="52"
       id="card_seat4" />
    <image
       xlink:href="card_back.png"
       x="490.09949"
       y="114.04913"
       width="37"
       height="52"
       id="card_seat3" />
    <image
       xlink:href="card_back.png"
       x="355.94717"
       y="114.04914"
       width="37"
       height="52"
       id="card_seat2" />
    <image
       xlink:href="card_back.png"
       x="217.37225"
       y="112.57494"
       width="37"
       height="52"
       id="card_seat1" />
  </g>
</svg>
