/* XPM */
static char * poker2D_xpm[] = {
"32 32 36 1",
" 	c None",
".	c #2D2D2D",
"+	c #D2D2D2",
"@	c #333333",
"#	c #CCCCCC",
"$	c #888888",
"%	c #111111",
"&	c #BBBBBB",
"*	c #444444",
"=	c #EEEEEE",
"-	c #DDDDDD",
";	c #555555",
">	c #AAAAAA",
",	c #222222",
"'	c #999999",
")	c #777777",
"!	c #666666",
"~	c #EDEDED",
"{	c #151515",
"]	c #818181",
"^	c #B7B7B7",
"/	c #424242",
"(	c #8A8A8A",
"_	c #F3F3F3",
":	c #515151",
"<	c #ABABAB",
"[	c #C9C9C9",
"}	c #0A0A0A",
"|	c #070707",
"1	c #545454",
"2	c #212121",
"3	c #AEAEAE",
"4	c #878787",
"5	c #000000",
"6	c #FFFFFF",
"7	c #FFFFFF",
"      25555555555555555552      ",
"      56666666666666666665      ",
"      56-55!66666666666665      ",
"      56@&6566666666666665      ",
"      56566566666666666665      ",
"      56555666666666666665      ",
"      56666666666666666665      ",
"      56666666666666666665      ",
"      56666666666666666665      ",
"      56666666,555!6666665      ",
"      56666665555555666665      ",
"      56666665555555666665      ",
"      56666666666555$66665      ",
"      56666666666555666665      ",
"      56666666666555666665      ",
"      5666666666555=666665      ",
"      56666666#555#6666665      ",
"      5666666,555666666665      ",
"      5666665555$$$$666665      ",
"      5666655555555$666665      ",
"      56666555555556666665      ",
"      56666666666666666665      ",
"      56666666666666666665      ",
"      56666666666666666665      ",
"      56666666666666666665      ",
"      56666666666666655)65      ",
"      56666666666666656565      ",
"      56666666666666$*6565      ",
"      566666666666665&5%65      ",
"      56666666666666666665      ",
"      56666666666666666665      ",
"      ~@@@@@@@@@@@@@@@@@@~      "};
