/* XPM */
static char * poker2D_16_xpm[] = {
"16 16 36 1",
" 	c None",
".	c #2D2D2D",
"+	c #D2D2D2",
"@	c #333333",
"#	c #CCCCCC",
"$	c #888888",
"%	c #111111",
"&	c #BBBBBB",
"*	c #444444",
"=	c #EEEEEE",
"-	c #DDDDDD",
";	c #555555",
">	c #AAAAAA",
",	c #222222",
"'	c #999999",
")	c #777777",
"!	c #666666",
"~	c #EDEDED",
"{	c #151515",
"]	c #818181",
"^	c #B7B7B7",
"/	c #424242",
"(	c #8A8A8A",
"_	c #F3F3F3",
":	c #515151",
"<	c #ABABAB",
"[	c #C9C9C9",
"}	c #0A0A0A",
"|	c #070707",
"1	c #545454",
"2	c #212121",
"3	c #AEAEAE",
"4	c #878787",
"5	c #000000",
"6	c #FFFFFF",
"7	c #FFFFFF",
"   <########<   ",
"   6556666666   ",
"   6556666666   ",
"   6666666666   ",
"   6666666666   ",
"   666$555666   ",
"   6666665666   ",
"   6666655666   ",
"   6666556666   ",
"   6665555666   ",
"   6655555666   ",
"   6666666666   ",
"   6666666666   ",
"   66666665&6   ",
"   66666665;6   ",
"   5555555555   "};
